<svg xmlns="http://www.w3.org/2000/svg" viewBox="0 0 64 64" role="img" aria-labelledby="logoTitle logoDesc">
  <title id="logoTitle">Little Seed Montessori Preschool</title>
  <desc id="logoDesc">A growing seedling rising from an open book</desc>
  <defs>
    <linearGradient id="logoBg" x1="8" y1="5" x2="55" y2="59" gradientUnits="userSpaceOnUse">
      <stop stop-color="#F9F4E8"/>
      <stop offset="1" stop-color="#E5EEDC"/>
    </linearGradient>
    <linearGradient id="logoLeaf" x1="22" y1="14" x2="43" y2="39" gradientUnits="userSpaceOnUse">
      <stop stop-color="#8DAE82"/>
      <stop offset="1" stop-color="#496D58"/>
    </linearGradient>
  </defs>
  <rect x="2" y="2" width="60" height="60" rx="19" fill="url(#logoBg)"/>
  <rect x="2.75" y="2.75" width="58.5" height="58.5" rx="18.25" fill="none" stroke="#496D58" stroke-opacity=".16" stroke-width="1.5"/>
  <circle cx="46.5" cy="16.5" r="3.5" fill="#E6B85C"/>
  <path d="M31.8 41.5V27.2" fill="none" stroke="#496D58" stroke-width="3.2" stroke-linecap="round"/>
  <path d="M31.5 27.5C24.9 27.4 20.7 23.8 20 17.2c6.8-.3 11.1 3.1 11.5 10.3Z" fill="url(#logoLeaf)"/>
  <path d="M32.4 32.1c.2-7.1 4.1-11.4 11.6-12.2.5 7.3-3.4 11.5-11.6 12.2Z" fill="#6F9271"/>
  <path d="M31.6 45.9c-4.5-4-9.7-5.4-15.6-4.3v-6.9c5.9-.8 11.1.8 15.6 4.8v6.4Z" fill="#FFFFFF" stroke="#496D58" stroke-width="2.2" stroke-linejoin="round"/>
  <path d="M32.4 45.9c4.5-4 9.7-5.4 15.6-4.3v-6.9c-5.9-.8-11.1.8-15.6 4.8v6.4Z" fill="#FFFFFF" stroke="#496D58" stroke-width="2.2" stroke-linejoin="round"/>
  <path d="M31.9 39.6v6.2" stroke="#496D58" stroke-width="2.2" stroke-linecap="round"/>
  <path d="M18.5 48.5c4.7-.3 9.2.6 13.5 2.8 4.3-2.2 8.8-3.1 13.5-2.8" fill="none" stroke="#E6B85C" stroke-width="2.4" stroke-linecap="round"/>
</svg>
